{
  "accessors": [
    {
      "bufferView": 2,
      "componentType": 5126,
      "count": 21277,
      "max": [
        0.632038414478302,
        0.19011856615543365,
        1.5254397392272949
      ],
      "min": [
        -0.632038414478302,
        -0.14200010895729065,
        0.00022707386233378202
      ],
      "type": "VEC3"
    },
    {
      "bufferView": 2,
      "byteOffset": 255324,
      "componentType": 5126,
      "count": 21277,
      "max": [
        0.99999696016311646,
        1,
        1
      ],
      "min": [
        -0.99999696016311646,
        -1,
        -1
      ],
      "type": "VEC3"
    },
    {
      "bufferView": 1,
      "componentType": 5126,
      "count": 21277,
      "max": [
        0.99451363086700439,
        0.98576688766479492
      ],
      "min": [
        0.011651561595499516,
        0.010447829961776733
      ],
      "type": "VEC2"
    },
    {
      "bufferView": 1,
      "byteOffset": 170216,
      "componentType": 5126,
      "count": 21277,
      "max": [
        1576.0350341796875,
        0.97397983074188232
      ],
      "min": [
        -1253910.625,
        0
      ],
      "type": "VEC2"
    },
    {
      "bufferView": 0,
      "componentType": 5125,
      "count": 110244,
      "max": [
        21276
      ],
      "min": [
        0
      ],
      "type": "SCALAR"
    },
    {
      "bufferView": 2,
      "byteOffset": 510648,
      "componentType": 5126,
      "count": 14791,
      "max": [
        0.63263821601867676,
        0.19066846370697021,
        1.5260378122329712
      ],
      "min": [
        -0.63263821601867676,
        -0.14251317083835602,
        -0.00037291177432052791
      ],
      "type": "VEC3"
    },
    {
      "bufferView": 2,
      "byteOffset": 688140,
      "componentType": 5126,
      "count": 14791,
      "max": [
        0.99997735023498535,
        0.99999946355819702,
        1
      ],
      "min": [
        -0.99997740983963013,
        -0.99999445676803589,
        -1
      ],
      "type": "VEC3"
    },
    {
      "bufferView": 1,
      "byteOffset": 340432,
      "componentType": 5126,
      "count": 14791,
      "max": [
        0.99451363086700439,
        0.98576688766479492
      ],
      "min": [
        0.015269938856363297,
        0.015423964709043503
      ],
      "type": "VEC2"
    },
    {
      "bufferView": 1,
      "byteOffset": 458760,
      "componentType": 5126,
      "count": 14791,
      "max": [
        0.15578505396842957,
        0.94862377643585205
      ],
      "min": [
        0,
        0
      ],
      "type": "VEC2"
    },
    {
      "bufferView": 0,
      "byteOffset": 440976,
      "componentType": 5125,
      "count": 79116,
      "max": [
        14790
      ],
      "min": [
        0
      ],
      "type": "SCALAR"
    },
    {
      "bufferView": 2,
      "byteOffset": 865632,
      "componentType": 5126,
      "count": 3805,
      "max": [
        0.095961235463619232,
        0.15942384302616119,
        1.5270798206329346
      ],
      "min": [
        -0.092469342052936554,
        -0.082144841551780701,
        1.2103817462921143
      ],
      "type": "VEC3"
    },
    {
      "bufferView": 2,
      "byteOffset": 911292,
      "componentType": 5126,
      "count": 3805,
      "max": [
        0.99934321641921997,
        0.99994432926177979,
        0.99994909763336182
      ],
      "min": [
        -0.99997127056121826,
        -0.99995464086532593,
        -0.99983018636703491
      ],
      "type": "VEC3"
    },
    {
      "bufferView": 1,
      "byteOffset": 577088,
      "componentType": 5126,
      "count": 3805,
      "max": [
        0.99560534954071045,
        1.0000001192092896
      ],
      "min": [
        0,
        0
      ],
      "type": "VEC2"
    },
    {
      "bufferView": 0,
      "byteOffset": 757440,
      "componentType": 5125,
      "count": 20208,
      "max": [
        3804
      ],
      "min": [
        0
      ],
      "type": "SCALAR"
    },
    {
      "bufferView": 2,
      "byteOffset": 956952,
      "componentType": 5126,
      "count": 3805,
      "max": [
        0.096489265561103821,
        0.15979179739952087,
        1.5277729034423828
      ],
      "min": [
        -0.093168869614601135,
        -0.08284035325050354,
        1.2097870111465454
      ],
      "type": "VEC3"
    },
    {
      "bufferView": 2,
      "byteOffset": 1002612,
      "componentType": 5126,
      "count": 3805,
      "max": [
        0.99997150897979736,
        0.99994981288909912,
        0.99983268976211548
      ],
      "min": [
        -0.99958235025405884,
        -0.99994385242462158,
        -0.99984145164489746
      ],
      "type": "VEC3"
    },
    {
      "bufferView": 1,
      "byteOffset": 607528,
      "componentType": 5126,
      "count": 3805,
      "max": [
        0.99560534954071045,
        1.0000001192092896
      ],
      "min": [
        0,
        0
      ],
      "type": "VEC2"
    },
    {
      "bufferView": 0,
      "byteOffset": 838272,
      "componentType": 5125,
      "count": 20208,
      "max": [
        3804
      ],
      "min": [
        0
      ],
      "type": "SCALAR"
    },
    {
      "bufferView": 2,
      "byteOffset": 1048272,
      "componentType": 5126,
      "count": 18907,
      "max": [
        0.632038414478302,
        0.19011856615543365,
        1.5254397392272949
      ],
      "min": [
        -0.632038414478302,
        -0.14200010895729065,
        0.00022707386233378202
      ],
      "type": "VEC3"
    },
    {
      "bufferView": 2,
      "byteOffset": 1275156,
      "componentType": 5126,
      "count": 18907,
      "max": [
        0.99999696016311646,
        1,
        1
      ],
      "min": [
        -0.99999696016311646,
        -1,
        -1
      ],
      "type": "VEC3"
    },
    {
      "bufferView": 1,
      "byteOffset": 637968,
      "componentType": 5126,
      "count": 18907,
      "max": [
        0.99451363086700439,
        0.98576688766479492
      ],
      "min": [
        0.011651561595499516,
        0.010447829961776733
      ],
      "type": "VEC2"
    },
    {
      "bufferView": 1,
      "byteOffset": 789224,
      "componentType": 5126,
      "count": 18907,
      "max": [
        1576.0350341796875,
        0.97397983074188232
      ],
      "min": [
        -1253910.625,
        0
      ],
      "type": "VEC2"
    },
    {
      "bufferView": 0,
      "byteOffset": 919104,
      "componentType": 5125,
      "count": 98772,
      "max": [
        18906
      ],
      "min": [
        0
      ],
      "type": "SCALAR"
    },
    {
      "bufferView": 2,
      "byteOffset": 1502040,
      "componentType": 5126,
      "count": 3805,
      "max": [
        0.095961235463619232,
        0.15942384302616119,
        1.5241196155548096
      ],
      "min": [
        -0.092469342052936554,
        -0.079214654862880707,
        1.2067388296127319
      ],
      "type": "VEC3"
    },
    {
      "bufferView": 2,
      "byteOffset": 1547700,
      "componentType": 5126,
      "count": 3805,
      "max": [
        0.99934333562850952,
        0.99994432926177979,
        0.99988716840744019
      ],
      "min": [
        -0.99997121095657349,
        -0.9999547004699707,
        -0.99983018636703491
      ],
      "type": "VEC3"
    },
    {
      "bufferView": 1,
      "byteOffset": 940480,
      "componentType": 5126,
      "count": 3805,
      "max": [
        0.99560534954071045,
        1.0000001192092896
      ],
      "min": [
        0,
        0
      ],
      "type": "VEC2"
    },
    {
      "bufferView": 0,
      "byteOffset": 1314192,
      "componentType": 5125,
      "count": 20208,
      "max": [
        3804
      ],
      "min": [
        0
      ],
      "type": "SCALAR"
    }
  ],
  "asset": {
    "extras": {
      "author": "KaguyasamaFA (https://sketchfab.com/kaguyafa)",
      "license": "CC-BY-4.0 (http://creativecommons.org/licenses/by/4.0/)",
      "source": "https://sketchfab.com/3d-models/kaguya-shinomiya-c6bfe0931a984daeb34a5a44a42a9b7a",
      "title": "Kaguya Shinomiya 四宮かぐや"
    },
    "generator": "Sketchfab-10.3.0",
    "version": "2.0"
  },
  "bufferViews": [
    {
      "buffer": 0,
      "byteLength": 1395024,
      "byteOffset": 0,
      "name": "floatBufferViews",
      "target": 34963
    },
    {
      "buffer": 0,
      "byteLength": 970920,
      "byteOffset": 1395024,
      "byteStride": 8,
      "name": "floatBufferViews",
      "target": 34962
    },
    {
      "buffer": 0,
      "byteLength": 1593360,
      "byteOffset": 2365944,
      "byteStride": 12,
      "name": "floatBufferViews",
      "target": 34962
    }
  ],
  "buffers": [
    {
      "byteLength": 3959304,
      "uri": "scene.bin"
    }
  ],
  "extensionsUsed": [
    "KHR_materials_unlit"
  ],
  "images": [
    {
      "uri": "textures/kaguya_body_baseColor.png"
    },
    {
      "uri": "textures/kaguya_hair_baseColor.png"
    }
  ],
  "materials": [
    {
      "doubleSided": true,
      "extensions": {
        "KHR_materials_unlit": {}
      },
      "name": "kaguya_body",
      "pbrMetallicRoughness": {
        "baseColorFactor": [
          1,
          1,
          1,
          1
        ],
        "baseColorTexture": {
          "index": 0,
          "texCoord": 0
        },
        "metallicFactor": 0,
        "roughnessFactor": 1
      }
    },
    {
      "doubleSided": false,
      "extensions": {
        "KHR_materials_unlit": {}
      },
      "name": "kaguya_body_toon",
      "pbrMetallicRoughness": {
        "baseColorFactor": [
          0,
          0,
          0,
          1
        ],
        "metallicFactor": 0,
        "roughnessFactor": 1
      }
    },
    {
      "doubleSided": true,
      "extensions": {
        "KHR_materials_unlit": {}
      },
      "name": "kaguya_hair",
      "pbrMetallicRoughness": {
        "baseColorFactor": [
          1,
          1,
          1,
          1
        ],
        "baseColorTexture": {
          "index": 1,
          "texCoord": 0
        },
        "metallicFactor": 0,
        "roughnessFactor": 1
      }
    },
    {
      "doubleSided": false,
      "extensions": {
        "KHR_materials_unlit": {}
      },
      "name": "kaguya_hair_toon",
      "pbrMetallicRoughness": {
        "baseColorFactor": [
          0,
          0,
          0,
          1
        ],
        "metallicFactor": 0,
        "roughnessFactor": 1
      }
    }
  ],
  "meshes": [
    {
      "name": "kaguya_body_toon_kaguya_body_0",
      "primitives": [
        {
          "attributes": {
            "NORMAL": 1,
            "POSITION": 0,
            "TEXCOORD_0": 2,
            "TEXCOORD_1": 3
          },
          "indices": 4,
          "material": 0,
          "mode": 4
        }
      ]
    },
    {
      "name": "kaguya_body_toon_kaguya_body_toon_0",
      "primitives": [
        {
          "attributes": {
            "NORMAL": 6,
            "POSITION": 5,
            "TEXCOORD_0": 7,
            "TEXCOORD_1": 8
          },
          "indices": 9,
          "material": 1,
          "mode": 4
        }
      ]
    },
    {
      "name": "kaguya_hair_toon_kaguya_hair_0",
      "primitives": [
        {
          "attributes": {
            "NORMAL": 11,
            "POSITION": 10,
            "TEXCOORD_0": 12
          },
          "indices": 13,
          "material": 2,
          "mode": 4
        }
      ]
    },
    {
      "name": "kaguya_hair_toon_kaguya_hair_toon_0",
      "primitives": [
        {
          "attributes": {
            "NORMAL": 15,
            "POSITION": 14,
            "TEXCOORD_0": 16
          },
          "indices": 17,
          "material": 3,
          "mode": 4
        }
      ]
    },
    {
      "name": "kaguya_body_kaguya_body_0",
      "primitives": [
        {
          "attributes": {
            "NORMAL": 19,
            "POSITION": 18,
            "TEXCOORD_0": 20,
            "TEXCOORD_1": 21
          },
          "indices": 22,
          "material": 0,
          "mode": 4
        }
      ]
    },
    {
      "name": "kaguya_hair_kaguya_hair_0",
      "primitives": [
        {
          "attributes": {
            "NORMAL": 24,
            "POSITION": 23,
            "TEXCOORD_0": 25
          },
          "indices": 26,
          "material": 2,
          "mode": 4
        }
      ]
    }
  ],
  "nodes": [
    {
      "children": [
        1
      ],
      "name": "RootNode (gltf orientation matrix)",
      "rotation": [
        -0.70710678118654746,
        -0,
        -0,
        0.70710678118654757
      ]
    },
    {
      "children": [
        2
      ],
      "name": "RootNode (model correction matrix)"
    },
    {
      "children": [
        3
      ],
      "matrix": [
        1,
        0,
        0,
        0,
        0,
        0,
        1,
        0,
        0,
        -1,
        0,
        0,
        0,
        0,
        0,
        1
      ],
      "name": "08d00cb21a1841d0bf58603837a844fb.fbx"
    },
    {
      "children": [
        4,
        7,
        10,
        12
      ],
      "name": "RootNode"
    },
    {
      "children": [
        5,
        6
      ],
      "matrix": [
        100,
        -3.5290134357168901e-22,
        -2.2940769321423622e-21,
        0,
        -2.2940769896372586e-21,
        -1.6292067939183141e-05,
        -99.999999999998678,
        0,
        3.5290096981911171e-22,
        99.999999999998678,
        -1.6292067939183141e-05,
        0,
        0,
        0,
        0,
        1
      ],
      "name": "kaguya_body_toon"
    },
    {
      "mesh": 0,
      "name": "kaguya_body_toon_kaguya_body_0"
    },
    {
      "mesh": 1,
      "name": "kaguya_body_toon_kaguya_body_toon_0"
    },
    {
      "children": [
        8,
        9
      ],
      "matrix": [
        100,
        -3.5290134357168901e-22,
        -2.2940769321423622e-21,
        0,
        -2.2940769896372586e-21,
        -1.6292067939183141e-05,
        -99.999999999998678,
        0,
        3.5290096981911171e-22,
        99.999999999998678,
        -1.6292067939183141e-05,
        0,
        0,
        0,
        0,
        1
      ],
      "name": "kaguya_hair_toon"
    },
    {
      "mesh": 2,
      "name": "kaguya_hair_toon_kaguya_hair_0"
    },
    {
      "mesh": 3,
      "name": "kaguya_hair_toon_kaguya_hair_toon_0"
    },
    {
      "children": [
        11
      ],
      "matrix": [
        100,
        -3.5290134357168901e-22,
        -2.2940769321423622e-21,
        0,
        -2.2940769896372586e-21,
        -1.6292067939183141e-05,
        -99.999999999998678,
        0,
        3.5290096981911171e-22,
        99.999999999998678,
        -1.6292067939183141e-05,
        0,
        134.191162109375,
        0,
        0,
        1
      ],
      "name": "kaguya_body"
    },
    {
      "mesh": 4,
      "name": "kaguya_body_kaguya_body_0"
    },
    {
      "children": [
        13
      ],
      "matrix": [
        100,
        -3.5290134357168901e-22,
        -2.2940769321423622e-21,
        0,
        -2.2940769896372586e-21,
        -1.6292067939183141e-05,
        -99.999999999998678,
        0,
        3.5290096981911171e-22,
        99.999999999998678,
        -1.6292067939183141e-05,
        0,
        134.191162109375,
        0,
        0,
        1
      ],
      "name": "kaguya_hair"
    },
    {
      "mesh": 5,
      "name": "kaguya_hair_kaguya_hair_0"
    }
  ],
  "samplers": [
    {
      "magFilter": 9729,
      "minFilter": 9987,
      "wrapS": 10497,
      "wrapT": 10497
    }
  ],
  "scene": 0,
  "scenes": [
    {
      "name": "OSG_Scene",
      "nodes": [
        0
      ]
    }
  ],
  "textures": [
    {
      "sampler": 0,
      "source": 0
    },
    {
      "sampler": 0,
      "source": 1
    }
  ]
}

